<svg xmlns="http://www.w3.org/2000/svg" viewBox="0 0 2400 1600"><rect width="2400" height="1600" style="fill:#ffd21c"/><path d="M820.7118,790.0531c9.3819,30.5383,27.3634,6.3959,30.9753,32.3653,31.6826,3.8277-17.0794,48.2275-36.6047,30.9619-50.2324-40.21-57.9062-123.1777-128.1193-136.5-98.671-28.2764,3.3916-324.649-112.6276-267.3922-26.4683,48.6918-99.9425.4481-66.1671-37.98,25.94-21.8,39.9925-57.6734,52.0933-90.0565,41.0719-22.1732,31.2556-25.3784,28.145-66.1463,6.8491-24.6308,49.2786-64.1289,52.1-12.6575,13.4553-7.3671,18.4592-30.9507,39.4214-22.5125,26.55,68.4045-96.3579,57.9979,29.5672,225.1491,18.5764,47.7934,69.9587,42.8305,109.8108,63.3255,678.7885-70.1924,561.8241,720.7775,1081.24,489.7421-45.4021,150.6408-295.2957,129.4343-388.5623,26.71C1441.2539,988.2839,1388.53,872.74,1333.19,842.1c-21.9909,80.5554,189.5682,263.2977,250.5815,313.8232,15.5384,33.6745,13.7252,144.9769,53.49,149.1795,23.8929,12.7786,40.2585,11.7338,47.8684,40.81,14.48,7.0774,33.595,11.4623,28.1637,33.7707-44.69,11.6632-69.912-15.618-105.5893-29.5517-17.14.43-35.58-9.6784-36.6028-28.1488C1549.1745,1065.43,1215.6,1087.8425,1081.16,926.56c-39.1429-40.869-45.2875-108.3278-78.8234-150.5849-69.5027,5.0325-127.674,3.75-188.6624-22.5169C791.5894,728.985,799.5356,802.443,820.7118,790.0531Z" style="fill:#0b672f"/></svg>